<svg width="15" height="17" viewBox="0 0 15 17" fill="none" xmlns="http://www.w3.org/2000/svg">
<path d="M12 9C11.7529 9 11 9.29074 11 9.59637V15H4V9.59637C4 9.29074 3.24712 9 3 9C2.75288 9 2.06616 9.29074 2.06616 9.59637V15.7656C2.06616 16.0712 2.2664 16.319 2.51352 16.319H12.4878C12.7349 16.319 12.9351 16.0712 12.9351 15.7656V9.59637C12.9351 9.29074 12.2471 9 12 9Z" fill="#F9DD79"/>
<path d="M14.8692 9.20493L7.8161 0.480911C7.64145 0.26479 7.35819 0.264864 7.18348 0.480911L0.131274 9.20493C-0.0434325 9.42105 -0.0434325 9.77146 0.131274 9.98751C0.218657 10.0955 0.33318 10.1496 0.447643 10.1496C0.562165 10.1496 1.17017 10.2577 1.25755 10.1496L7.5 2.5L13.5 10C13.6746 10.2161 14.6946 10.2036 14.8693 9.98744C15.0439 9.77139 15.0439 9.42098 14.8692 9.20493Z" fill="#F9DD79"/>
</svg>
